<svg width="20" height="20" viewBox="0 0 20 20" fill="none" xmlns="http://www.w3.org/2000/svg">
<path fill-rule="evenodd" clip-rule="evenodd" d="M5.04999 4.05C6.36281 2.73718 8.14338 1.99964 9.99999 1.99964C11.8566 1.99964 13.6372 2.73718 14.95 4.05C16.2628 5.36282 17.0003 7.14339 17.0003 9C17.0003 10.8566 16.2628 12.6372 14.95 13.95L9.99999 18.9L5.04999 13.95C4.3999 13.3 3.88422 12.5283 3.53239 11.6789C3.18057 10.8296 2.99948 9.91931 2.99948 9C2.99948 8.08069 3.18057 7.17038 3.53239 6.32105C3.88422 5.47172 4.3999 4.70002 5.04999 4.05ZM9.99999 11C10.5304 11 11.0391 10.7893 11.4142 10.4142C11.7893 10.0391 12 9.53043 12 9C12 8.46957 11.7893 7.96086 11.4142 7.58578C11.0391 7.21071 10.5304 7 9.99999 7C9.46955 7 8.96085 7.21071 8.58577 7.58578C8.2107 7.96086 7.99999 8.46957 7.99999 9C7.99999 9.53043 8.2107 10.0391 8.58577 10.4142C8.96085 10.7893 9.46955 11 9.99999 11Z" fill="#EF7D31"/>
</svg>
